<?xml version="1.0" encoding="us-ascii" standalone="no"?><svg xmlns="http://www.w3.org/2000/svg" xmlns:xlink="http://www.w3.org/1999/xlink" contentStyleType="text/css" height="937px" preserveAspectRatio="none" style="width:996px;height:937px;background:#FFFFFF;" version="1.1" viewBox="0 0 996 937" width="996px" zoomAndPan="magnify"><defs/><g><text fill="#000000" font-family="sans-serif" font-size="14" font-weight="bold" lengthAdjust="spacing" textLength="220" x="381" y="24.5332">Modelo E/R - Vetopia (JPA + H2)</text><!--class dueno--><g id="elem_dueno"><rect codeLine="15" fill="#F1F1F1" height="171.2656" id="dueno" rx="2.5" ry="2.5" style="stroke:#181818;stroke-width:0.5;" width="310" x="7" y="45.6094"/><ellipse cx="133.75" cy="61.6094" fill="#ADD1B2" rx="11" ry="11" style="stroke:#181818;stroke-width:1.0;"/><path d="M132.6094,62.4063 L132.6094,64.9063 L136.9375,64.9063 L136.9375,63.9844 Q136.9375,63.375 137.1719,63.1094 Q137.4219,62.8438 137.7969,62.8438 Q138.1719,62.8438 138.4063,63.1094 Q138.6406,63.375 138.6406,63.9844 L138.6406,66.6094 L130.6406,66.6094 Q130.0156,66.6094 129.75,66.375 Q129.5,66.1406 129.5,65.75 Q129.5,65.375 129.7656,65.1406 Q130.0313,64.9063 130.6406,64.9063 L130.9063,64.9063 L130.9063,58.25 L130.6406,58.25 Q130.0156,58.25 129.75,58.0156 Q129.5,57.7813 129.5,57.3906 Q129.5,57.0156 129.75,56.7813 Q130.0156,56.5469 130.6406,56.5469 L138.2656,56.5469 L138.2656,59.1406 Q138.2656,59.75 138.0313,60.0156 Q137.8125,60.2656 137.4219,60.2656 Q137.0469,60.2656 136.8125,60.0156 Q136.5781,59.75 136.5781,59.1406 L136.5781,58.25 L132.6094,58.25 L132.6094,60.7031 L134.0938,60.7031 Q134.0938,60.0469 134.2188,59.8594 Q134.4844,59.4531 134.9531,59.4531 Q135.3281,59.4531 135.5625,59.7188 Q135.7969,59.9688 135.7969,60.5781 L135.7969,62.5469 Q135.7969,63.0938 135.6719,63.2813 Q135.4063,63.6719 134.9531,63.6719 Q134.4844,63.6719 134.2188,63.2656 Q134.0938,63.0781 134.0938,62.4063 L132.6094,62.4063 Z " fill="#000000"/><text fill="#000000" font-family="sans-serif" font-size="14" lengthAdjust="spacing" textLength="48" x="154.25" y="67.3379">DUENO</text><line style="stroke:#181818;stroke-width:0.5;" x1="8" x2="316" y1="77.6094" y2="77.6094"/><text fill="#000000" font-family="sans-serif" font-size="14" lengthAdjust="spacing" textLength="174" x="13" y="96.1426">id : INTEGER &#171;PK, identity&#187;</text><line style="stroke:#181818;stroke-width:1.0;" x1="8" x2="316" y1="103.2188" y2="103.2188"/><text fill="#000000" font-family="sans-serif" font-size="14" lengthAdjust="spacing" textLength="291" x="13" y="121.752">cedula : VARCHAR(20) &#171;NOT NULL, UNIQUE&#187;</text><text fill="#000000" font-family="sans-serif" font-size="14" lengthAdjust="spacing" textLength="247" x="13" y="139.3613">nombre : VARCHAR(100) &#171;NOT NULL&#187;</text><text fill="#000000" font-family="sans-serif" font-size="14" lengthAdjust="spacing" textLength="298" x="13" y="156.9707">correo : VARCHAR(150) &#171;NOT NULL, UNIQUE&#187;</text><text fill="#000000" font-family="sans-serif" font-size="14" lengthAdjust="spacing" textLength="270" x="13" y="174.5801">contrasena : VARCHAR(255) &#171;NOT NULL&#187;</text><text fill="#000000" font-family="sans-serif" font-size="14" lengthAdjust="spacing" textLength="200" x="13" y="192.1895">celular : VARCHAR(20) &#171;NULL&#187;</text><text fill="#000000" font-family="sans-serif" font-size="14" lengthAdjust="spacing" textLength="234" x="13" y="209.7988">estado : VARCHAR(20) &#171;NOT NULL&#187;</text></g><!--class mascota--><g id="elem_mascota"><rect codeLine="26" fill="#F1F1F1" height="284.9219" id="mascota" rx="2.5" ry="2.5" style="stroke:#181818;stroke-width:0.5;" width="259" x="32.5" y="294.6094"/><ellipse cx="123.75" cy="310.6094" fill="#ADD1B2" rx="11" ry="11" style="stroke:#181818;stroke-width:1.0;"/><path d="M122.6094,311.4063 L122.6094,313.9063 L126.9375,313.9063 L126.9375,312.9844 Q126.9375,312.375 127.1719,312.1094 Q127.4219,311.8438 127.7969,311.8438 Q128.1719,311.8438 128.4063,312.1094 Q128.6406,312.375 128.6406,312.9844 L128.6406,315.6094 L120.6406,315.6094 Q120.0156,315.6094 119.75,315.375 Q119.5,315.1406 119.5,314.75 Q119.5,314.375 119.7656,314.1406 Q120.0313,313.9063 120.6406,313.9063 L120.9063,313.9063 L120.9063,307.25 L120.6406,307.25 Q120.0156,307.25 119.75,307.0156 Q119.5,306.7813 119.5,306.3906 Q119.5,306.0156 119.75,305.7813 Q120.0156,305.5469 120.6406,305.5469 L128.2656,305.5469 L128.2656,308.1406 Q128.2656,308.75 128.0313,309.0156 Q127.8125,309.2656 127.4219,309.2656 Q127.0469,309.2656 126.8125,309.0156 Q126.5781,308.75 126.5781,308.1406 L126.5781,307.25 L122.6094,307.25 L122.6094,309.7031 L124.0938,309.7031 Q124.0938,309.0469 124.2188,308.8594 Q124.4844,308.4531 124.9531,308.4531 Q125.3281,308.4531 125.5625,308.7188 Q125.7969,308.9688 125.7969,309.5781 L125.7969,311.5469 Q125.7969,312.0938 125.6719,312.2813 Q125.4063,312.6719 124.9531,312.6719 Q124.4844,312.6719 124.2188,312.2656 Q124.0938,312.0781 124.0938,311.4063 L122.6094,311.4063 Z " fill="#000000"/><text fill="#000000" font-family="sans-serif" font-size="14" lengthAdjust="spacing" textLength="68" x="144.25" y="316.3379">MASCOTA</text><line style="stroke:#181818;stroke-width:0.5;" x1="33.5" x2="290.5" y1="326.6094" y2="326.6094"/><text fill="#000000" font-family="sans-serif" font-size="14" lengthAdjust="spacing" textLength="174" x="38.5" y="345.1426">id : INTEGER &#171;PK, identity&#187;</text><line style="stroke:#181818;stroke-width:1.0;" x1="33.5" x2="290.5" y1="352.2188" y2="352.2188"/><text fill="#000000" font-family="sans-serif" font-size="14" lengthAdjust="spacing" textLength="247" x="38.5" y="370.752">nombre : VARCHAR(100) &#171;NOT NULL&#187;</text><text fill="#000000" font-family="sans-serif" font-size="14" lengthAdjust="spacing" textLength="240" x="38.5" y="388.3613">especie : VARCHAR(50) &#171;NOT NULL&#187;</text><text fill="#000000" font-family="sans-serif" font-size="14" lengthAdjust="spacing" textLength="193" x="38.5" y="405.9707">raza : VARCHAR(100) &#171;NULL&#187;</text><text fill="#000000" font-family="sans-serif" font-size="14" lengthAdjust="spacing" textLength="154" x="38.5" y="423.5801">edad : DOUBLE &#171;NULL&#187;</text><text fill="#000000" font-family="sans-serif" font-size="14" lengthAdjust="spacing" textLength="187" x="38.5" y="441.1895">sexo : VARCHAR(20) &#171;NULL&#187;</text><text fill="#000000" font-family="sans-serif" font-size="14" lengthAdjust="spacing" textLength="212" x="38.5" y="458.7988">imagen : VARCHAR(500) &#171;NULL&#187;</text><text fill="#000000" font-family="sans-serif" font-size="14" lengthAdjust="spacing" textLength="176" x="38.5" y="476.4082">peso_kg : DOUBLE &#171;NULL&#187;</text><text fill="#000000" font-family="sans-serif" font-size="14" lengthAdjust="spacing" textLength="197" x="38.5" y="494.0176">color : VARCHAR(100) &#171;NULL&#187;</text><text fill="#000000" font-family="sans-serif" font-size="14" lengthAdjust="spacing" textLength="193" x="38.5" y="511.627">fecha_ingreso : DATE &#171;NULL&#187;</text><text fill="#000000" font-family="sans-serif" font-size="14" lengthAdjust="spacing" textLength="242" x="38.5" y="529.2363">enfermedad : VARCHAR(500) &#171;NULL&#187;</text><text fill="#000000" font-family="sans-serif" font-size="14" lengthAdjust="spacing" textLength="234" x="38.5" y="546.8457">estado : VARCHAR(20) &#171;NOT NULL&#187;</text><line style="stroke:#181818;stroke-width:1.0;" x1="33.5" x2="290.5" y1="553.9219" y2="553.9219"/><text fill="#000000" font-family="sans-serif" font-size="14" lengthAdjust="spacing" textLength="244" x="38.5" y="572.4551">dueno_id : INTEGER &#171;FK, NOT NULL&#187;</text></g><!--class tratamiento--><g id="elem_tratamiento"><rect codeLine="44" fill="#F1F1F1" height="144.0469" id="tratamiento" rx="2.5" ry="2.5" style="stroke:#181818;stroke-width:0.5;" width="283" x="343.5" y="657.6094"/><ellipse cx="431.75" cy="673.6094" fill="#ADD1B2" rx="11" ry="11" style="stroke:#181818;stroke-width:1.0;"/><path d="M430.6094,674.4063 L430.6094,676.9063 L434.9375,676.9063 L434.9375,675.9844 Q434.9375,675.375 435.1719,675.1094 Q435.4219,674.8438 435.7969,674.8438 Q436.1719,674.8438 436.4063,675.1094 Q436.6406,675.375 436.6406,675.9844 L436.6406,678.6094 L428.6406,678.6094 Q428.0156,678.6094 427.75,678.375 Q427.5,678.1406 427.5,677.75 Q427.5,677.375 427.7656,677.1406 Q428.0313,676.9063 428.6406,676.9063 L428.9063,676.9063 L428.9063,670.25 L428.6406,670.25 Q428.0156,670.25 427.75,670.0156 Q427.5,669.7813 427.5,669.3906 Q427.5,669.0156 427.75,668.7813 Q428.0156,668.5469 428.6406,668.5469 L436.2656,668.5469 L436.2656,671.1406 Q436.2656,671.75 436.0313,672.0156 Q435.8125,672.2656 435.4219,672.2656 Q435.0469,672.2656 434.8125,672.0156 Q434.5781,671.75 434.5781,671.1406 L434.5781,670.25 L430.6094,670.25 L430.6094,672.7031 L432.0938,672.7031 Q432.0938,672.0469 432.2188,671.8594 Q432.4844,671.4531 432.9531,671.4531 Q433.3281,671.4531 433.5625,671.7188 Q433.7969,671.9688 433.7969,672.5781 L433.7969,674.5469 Q433.7969,675.0938 433.6719,675.2813 Q433.4063,675.6719 432.9531,675.6719 Q432.4844,675.6719 432.2188,675.2656 Q432.0938,675.0781 432.0938,674.4063 L430.6094,674.4063 Z " fill="#000000"/><text fill="#000000" font-family="sans-serif" font-size="14" lengthAdjust="spacing" textLength="98" x="452.25" y="679.3379">TRATAMIENTO</text><line style="stroke:#181818;stroke-width:0.5;" x1="344.5" x2="625.5" y1="689.6094" y2="689.6094"/><text fill="#000000" font-family="sans-serif" font-size="14" lengthAdjust="spacing" textLength="174" x="349.5" y="708.1426">id : INTEGER &#171;PK, identity&#187;</text><line style="stroke:#181818;stroke-width:1.0;" x1="344.5" x2="625.5" y1="715.2188" y2="715.2188"/><text fill="#000000" font-family="sans-serif" font-size="14" lengthAdjust="spacing" textLength="171" x="349.5" y="733.752">fecha : DATE &#171;NOT NULL&#187;</text><line style="stroke:#181818;stroke-width:1.0;" x1="344.5" x2="625.5" y1="740.8281" y2="740.8281"/><text fill="#000000" font-family="sans-serif" font-size="14" lengthAdjust="spacing" textLength="257" x="349.5" y="759.3613">mascota_id : INTEGER &#171;FK, NOT NULL&#187;</text><text fill="#000000" font-family="sans-serif" font-size="14" lengthAdjust="spacing" textLength="241" x="349.5" y="776.9707">droga_id : INTEGER &#171;FK, NOT NULL&#187;</text><text fill="#000000" font-family="sans-serif" font-size="14" lengthAdjust="spacing" textLength="271" x="349.5" y="794.5801">veterinario_id : INTEGER &#171;FK, NOT NULL&#187;</text></g><!--class droga--><g id="elem_droga"><rect codeLine="54" fill="#F1F1F1" height="153.6563" id="droga" rx="2.5" ry="2.5" style="stroke:#181818;stroke-width:0.5;" width="317" x="326.5" y="360.1094"/><ellipse cx="455.25" cy="376.1094" fill="#ADD1B2" rx="11" ry="11" style="stroke:#181818;stroke-width:1.0;"/><path d="M454.1094,376.9063 L454.1094,379.4063 L458.4375,379.4063 L458.4375,378.4844 Q458.4375,377.875 458.6719,377.6094 Q458.9219,377.3438 459.2969,377.3438 Q459.6719,377.3438 459.9063,377.6094 Q460.1406,377.875 460.1406,378.4844 L460.1406,381.1094 L452.1406,381.1094 Q451.5156,381.1094 451.25,380.875 Q451,380.6406 451,380.25 Q451,379.875 451.2656,379.6406 Q451.5313,379.4063 452.1406,379.4063 L452.4063,379.4063 L452.4063,372.75 L452.1406,372.75 Q451.5156,372.75 451.25,372.5156 Q451,372.2813 451,371.8906 Q451,371.5156 451.25,371.2813 Q451.5156,371.0469 452.1406,371.0469 L459.7656,371.0469 L459.7656,373.6406 Q459.7656,374.25 459.5313,374.5156 Q459.3125,374.7656 458.9219,374.7656 Q458.5469,374.7656 458.3125,374.5156 Q458.0781,374.25 458.0781,373.6406 L458.0781,372.75 L454.1094,372.75 L454.1094,375.2031 L455.5938,375.2031 Q455.5938,374.5469 455.7188,374.3594 Q455.9844,373.9531 456.4531,373.9531 Q456.8281,373.9531 457.0625,374.2188 Q457.2969,374.4688 457.2969,375.0781 L457.2969,377.0469 Q457.2969,377.5938 457.1719,377.7813 Q456.9063,378.1719 456.4531,378.1719 Q455.9844,378.1719 455.7188,377.7656 Q455.5938,377.5781 455.5938,376.9063 L454.1094,376.9063 Z " fill="#000000"/><text fill="#000000" font-family="sans-serif" font-size="14" lengthAdjust="spacing" textLength="51" x="475.75" y="381.8379">DROGA</text><line style="stroke:#181818;stroke-width:0.5;" x1="327.5" x2="642.5" y1="392.1094" y2="392.1094"/><text fill="#000000" font-family="sans-serif" font-size="14" lengthAdjust="spacing" textLength="174" x="332.5" y="410.6426">id : INTEGER &#171;PK, identity&#187;</text><line style="stroke:#181818;stroke-width:1.0;" x1="327.5" x2="642.5" y1="417.7188" y2="417.7188"/><text fill="#000000" font-family="sans-serif" font-size="14" lengthAdjust="spacing" textLength="305" x="332.5" y="436.252">nombre : VARCHAR(150) &#171;NOT NULL, UNIQUE&#187;</text><text fill="#000000" font-family="sans-serif" font-size="14" lengthAdjust="spacing" textLength="249" x="332.5" y="453.8613">precio_compra : DOUBLE &#171;NOT NULL&#187;</text><text fill="#000000" font-family="sans-serif" font-size="14" lengthAdjust="spacing" textLength="237" x="332.5" y="471.4707">precio_venta : DOUBLE &#171;NOT NULL&#187;</text><text fill="#000000" font-family="sans-serif" font-size="14" lengthAdjust="spacing" textLength="296" x="332.5" y="489.0801">unidades_disponibles : INTEGER &#171;NOT NULL&#187;</text><text fill="#000000" font-family="sans-serif" font-size="14" lengthAdjust="spacing" textLength="282" x="332.5" y="506.6895">unidades_vendidas : INTEGER &#171;NOT NULL&#187;</text></g><!--class veterinario--><g id="elem_veterinario"><rect codeLine="64" fill="#F1F1F1" height="232.0938" id="veterinario" rx="2.5" ry="2.5" style="stroke:#181818;stroke-width:0.5;" width="310" x="679" y="321.1094"/><ellipse cx="784.25" cy="337.1094" fill="#ADD1B2" rx="11" ry="11" style="stroke:#181818;stroke-width:1.0;"/><path d="M783.1094,337.9063 L783.1094,340.4063 L787.4375,340.4063 L787.4375,339.4844 Q787.4375,338.875 787.6719,338.6094 Q787.9219,338.3438 788.2969,338.3438 Q788.6719,338.3438 788.9063,338.6094 Q789.1406,338.875 789.1406,339.4844 L789.1406,342.1094 L781.1406,342.1094 Q780.5156,342.1094 780.25,341.875 Q780,341.6406 780,341.25 Q780,340.875 780.2656,340.6406 Q780.5313,340.4063 781.1406,340.4063 L781.4063,340.4063 L781.4063,333.75 L781.1406,333.75 Q780.5156,333.75 780.25,333.5156 Q780,333.2813 780,332.8906 Q780,332.5156 780.25,332.2813 Q780.5156,332.0469 781.1406,332.0469 L788.7656,332.0469 L788.7656,334.6406 Q788.7656,335.25 788.5313,335.5156 Q788.3125,335.7656 787.9219,335.7656 Q787.5469,335.7656 787.3125,335.5156 Q787.0781,335.25 787.0781,334.6406 L787.0781,333.75 L783.1094,333.75 L783.1094,336.2031 L784.5938,336.2031 Q784.5938,335.5469 784.7188,335.3594 Q784.9844,334.9531 785.4531,334.9531 Q785.8281,334.9531 786.0625,335.2188 Q786.2969,335.4688 786.2969,336.0781 L786.2969,338.0469 Q786.2969,338.5938 786.1719,338.7813 Q785.9063,339.1719 785.4531,339.1719 Q784.9844,339.1719 784.7188,338.7656 Q784.5938,338.5781 784.5938,337.9063 L783.1094,337.9063 Z " fill="#000000"/><text fill="#000000" font-family="sans-serif" font-size="14" lengthAdjust="spacing" textLength="91" x="804.75" y="342.8379">VETERINARIO</text><line style="stroke:#181818;stroke-width:0.5;" x1="680" x2="988" y1="353.1094" y2="353.1094"/><text fill="#000000" font-family="sans-serif" font-size="14" lengthAdjust="spacing" textLength="174" x="685" y="371.6426">id : INTEGER &#171;PK, identity&#187;</text><line style="stroke:#181818;stroke-width:1.0;" x1="680" x2="988" y1="378.7188" y2="378.7188"/><text fill="#000000" font-family="sans-serif" font-size="14" lengthAdjust="spacing" textLength="291" x="685" y="397.252">cedula : VARCHAR(20) &#171;NOT NULL, UNIQUE&#187;</text><text fill="#000000" font-family="sans-serif" font-size="14" lengthAdjust="spacing" textLength="247" x="685" y="414.8613">nombre : VARCHAR(100) &#171;NOT NULL&#187;</text><text fill="#000000" font-family="sans-serif" font-size="14" lengthAdjust="spacing" textLength="298" x="685" y="432.4707">correo : VARCHAR(150) &#171;NOT NULL, UNIQUE&#187;</text><text fill="#000000" font-family="sans-serif" font-size="14" lengthAdjust="spacing" textLength="270" x="685" y="450.0801">contrasena : VARCHAR(255) &#171;NOT NULL&#187;</text><text fill="#000000" font-family="sans-serif" font-size="14" lengthAdjust="spacing" textLength="245" x="685" y="467.6895">especialidad : VARCHAR(100) &#171;NULL&#187;</text><text fill="#000000" font-family="sans-serif" font-size="14" lengthAdjust="spacing" textLength="284" x="685" y="485.2988">numero_atenciones : INTEGER &#171;NOT NULL&#187;</text><text fill="#000000" font-family="sans-serif" font-size="14" lengthAdjust="spacing" textLength="214" x="685" y="502.9082">url_foto : VARCHAR(500) &#171;NULL&#187;</text><text fill="#000000" font-family="sans-serif" font-size="14" lengthAdjust="spacing" textLength="234" x="685" y="520.5176">estado : VARCHAR(20) &#171;NOT NULL&#187;</text><line style="stroke:#181818;stroke-width:1.0;" x1="680" x2="988" y1="527.5938" y2="527.5938"/><text fill="#000000" font-family="sans-serif" font-size="14" lengthAdjust="spacing" textLength="257" x="685" y="546.127">administrador_id : INTEGER &#171;FK, NULL&#187;</text></g><!--class administrador--><g id="elem_administrador"><rect codeLine="79" fill="#F1F1F1" height="136.0469" id="administrador" rx="2.5" ry="2.5" style="stroke:#181818;stroke-width:0.5;" width="310" x="679" y="63.1094"/><ellipse cx="773.25" cy="79.1094" fill="#ADD1B2" rx="11" ry="11" style="stroke:#181818;stroke-width:1.0;"/><path d="M772.1094,79.9063 L772.1094,82.4063 L776.4375,82.4063 L776.4375,81.4844 Q776.4375,80.875 776.6719,80.6094 Q776.9219,80.3438 777.2969,80.3438 Q777.6719,80.3438 777.9063,80.6094 Q778.1406,80.875 778.1406,81.4844 L778.1406,84.1094 L770.1406,84.1094 Q769.5156,84.1094 769.25,83.875 Q769,83.6406 769,83.25 Q769,82.875 769.2656,82.6406 Q769.5313,82.4063 770.1406,82.4063 L770.4063,82.4063 L770.4063,75.75 L770.1406,75.75 Q769.5156,75.75 769.25,75.5156 Q769,75.2813 769,74.8906 Q769,74.5156 769.25,74.2813 Q769.5156,74.0469 770.1406,74.0469 L777.7656,74.0469 L777.7656,76.6406 Q777.7656,77.25 777.5313,77.5156 Q777.3125,77.7656 776.9219,77.7656 Q776.5469,77.7656 776.3125,77.5156 Q776.0781,77.25 776.0781,76.6406 L776.0781,75.75 L772.1094,75.75 L772.1094,78.2031 L773.5938,78.2031 Q773.5938,77.5469 773.7188,77.3594 Q773.9844,76.9531 774.4531,76.9531 Q774.8281,76.9531 775.0625,77.2188 Q775.2969,77.4688 775.2969,78.0781 L775.2969,80.0469 Q775.2969,80.5938 775.1719,80.7813 Q774.9063,81.1719 774.4531,81.1719 Q773.9844,81.1719 773.7188,80.7656 Q773.5938,80.5781 773.5938,79.9063 L772.1094,79.9063 Z " fill="#000000"/><text fill="#000000" font-family="sans-serif" font-size="14" lengthAdjust="spacing" textLength="113" x="793.75" y="84.8379">ADMINISTRADOR</text><line style="stroke:#181818;stroke-width:0.5;" x1="680" x2="988" y1="95.1094" y2="95.1094"/><text fill="#000000" font-family="sans-serif" font-size="14" lengthAdjust="spacing" textLength="174" x="685" y="113.6426">id : INTEGER &#171;PK, identity&#187;</text><line style="stroke:#181818;stroke-width:1.0;" x1="680" x2="988" y1="120.7188" y2="120.7188"/><text fill="#000000" font-family="sans-serif" font-size="14" lengthAdjust="spacing" textLength="291" x="685" y="139.252">cedula : VARCHAR(20) &#171;NOT NULL, UNIQUE&#187;</text><text fill="#000000" font-family="sans-serif" font-size="14" lengthAdjust="spacing" textLength="247" x="685" y="156.8613">nombre : VARCHAR(100) &#171;NOT NULL&#187;</text><text fill="#000000" font-family="sans-serif" font-size="14" lengthAdjust="spacing" textLength="298" x="685" y="174.4707">correo : VARCHAR(150) &#171;NOT NULL, UNIQUE&#187;</text><text fill="#000000" font-family="sans-serif" font-size="14" lengthAdjust="spacing" textLength="270" x="685" y="192.0801">contrasena : VARCHAR(255) &#171;NOT NULL&#187;</text></g><!--link administrador to veterinario--><g id="link_administrador_veterinario"><path codeLine="88" d="M834,207.1994 C834,242.9594 834,261.9494 834,303.0894 " fill="none" id="administrador-veterinario" style="stroke:#181818;stroke-width:1.0;"/><line style="stroke:#181818;stroke-width:1.0;" x1="830" x2="838" y1="203.1994" y2="203.1994"/><line style="stroke:#181818;stroke-width:1.0;" x1="830" x2="838" y1="206.1994" y2="206.1994"/><line style="stroke:#181818;stroke-width:1.0;" x1="834" x2="834" y1="207.1994" y2="199.1994"/><line style="stroke:#181818;stroke-width:1.0;" x1="834" x2="840" y1="313.0894" y2="321.0894"/><line style="stroke:#181818;stroke-width:1.0;" x1="834" x2="828" y1="313.0894" y2="321.0894"/><line style="stroke:#181818;stroke-width:1.0;" x1="834" x2="834" y1="313.0894" y2="321.0894"/><ellipse cx="834" cy="307.0894" fill="none" rx="4" ry="4" style="stroke:#181818;stroke-width:1.0;"/><text fill="#000000" font-family="sans-serif" font-size="13" lengthAdjust="spacing" textLength="49" x="835" y="261.1045">gestiona</text></g><!--link dueno to mascota--><g id="link_dueno_mascota"><path codeLine="89" d="M162,224.7894 C162,248.9494 162,249.9494 162,276.5194 " fill="none" id="dueno-mascota" style="stroke:#181818;stroke-width:1.0;"/><line style="stroke:#181818;stroke-width:1.0;" x1="158" x2="166" y1="220.7894" y2="220.7894"/><line style="stroke:#181818;stroke-width:1.0;" x1="158" x2="166" y1="223.7894" y2="223.7894"/><line style="stroke:#181818;stroke-width:1.0;" x1="162" x2="162" y1="224.7894" y2="216.7894"/><line style="stroke:#181818;stroke-width:1.0;" x1="162" x2="168" y1="286.5194" y2="294.5194"/><line style="stroke:#181818;stroke-width:1.0;" x1="162" x2="156" y1="286.5194" y2="294.5194"/><line style="stroke:#181818;stroke-width:1.0;" x1="162" x2="162" y1="286.5194" y2="294.5194"/><ellipse cx="162" cy="280.5194" fill="none" rx="4" ry="4" style="stroke:#181818;stroke-width:1.0;"/><text fill="#000000" font-family="sans-serif" font-size="13" lengthAdjust="spacing" textLength="71" x="163" y="261.1045">es due&#241;o de</text></g><!--link mascota to tratamiento--><g id="link_mascota_tratamiento"><path codeLine="90" d="M297.7162,569.3572 C303.4962,574.6772 303.35,574.5094 309,579.6094 C337.67,605.4994 355.9741,621.442 384.7941,645.722 " fill="none" id="mascota-tratamiento" style="stroke:#181818;stroke-width:1.0;"/><line style="stroke:#181818;stroke-width:1.0;" x1="292.0642" x2="297.482" y1="569.5914" y2="563.7051"/><line style="stroke:#181818;stroke-width:1.0;" x1="294.2716" x2="299.6893" y1="571.623" y2="565.7368"/><line style="stroke:#181818;stroke-width:1.0;" x1="297.7162" x2="291.83" y1="569.3572" y2="563.9394"/><line style="stroke:#181818;stroke-width:1.0;" x1="392.4418" x2="402.4258" y1="652.165" y2="652.7307"/><line style="stroke:#181818;stroke-width:1.0;" x1="392.4418" x2="394.6942" y1="652.165" y2="661.908"/><line style="stroke:#181818;stroke-width:1.0;" x1="392.4418" x2="398.56" y1="652.165" y2="657.3194"/><ellipse cx="387.8532" cy="648.2992" fill="none" rx="4" ry="4" style="stroke:#181818;stroke-width:1.0;"/><text fill="#000000" font-family="sans-serif" font-size="13" lengthAdjust="spacing" textLength="35" x="363" y="624.1045">recibe</text></g><!--link droga to tratamiento--><g id="link_droga_tratamiento"><path codeLine="91" d="M485,522.4394 C485,566.6494 485,595.9494 485,639.2794 " fill="none" id="droga-tratamiento" style="stroke:#181818;stroke-width:1.0;"/><line style="stroke:#181818;stroke-width:1.0;" x1="481" x2="489" y1="518.4394" y2="518.4394"/><line style="stroke:#181818;stroke-width:1.0;" x1="481" x2="489" y1="521.4394" y2="521.4394"/><line style="stroke:#181818;stroke-width:1.0;" x1="485" x2="485" y1="522.4394" y2="514.4394"/><line style="stroke:#181818;stroke-width:1.0;" x1="485" x2="491" y1="649.2794" y2="657.2794"/><line style="stroke:#181818;stroke-width:1.0;" x1="485" x2="479" y1="649.2794" y2="657.2794"/><line style="stroke:#181818;stroke-width:1.0;" x1="485" x2="485" y1="649.2794" y2="657.2794"/><ellipse cx="485" cy="643.2794" fill="none" rx="4" ry="4" style="stroke:#181818;stroke-width:1.0;"/><text fill="#000000" font-family="sans-serif" font-size="13" lengthAdjust="spacing" textLength="107" x="486" y="624.1045">se prescribe como</text></g><!--link veterinario to tratamiento--><g id="link_veterinario_tratamiento"><path codeLine="92" d="M689.6715,558.2476 C647.3015,593.5176 621.9249,614.6343 584.1749,646.0543 " fill="none" id="veterinario-tratamiento" style="stroke:#181818;stroke-width:1.0;"/><line style="stroke:#181818;stroke-width:1.0;" x1="690.1867" x2="695.3048" y1="552.6142" y2="558.7627"/><line style="stroke:#181818;stroke-width:1.0;" x1="687.881" x2="692.9992" y1="554.5335" y2="560.682"/><line style="stroke:#181818;stroke-width:1.0;" x1="689.6715" x2="695.82" y1="558.2476" y2="553.1294"/><line style="stroke:#181818;stroke-width:1.0;" x1="576.4888" x2="574.1783" y1="652.4516" y2="662.181"/><line style="stroke:#181818;stroke-width:1.0;" x1="576.4888" x2="566.5017" y1="652.4516" y2="652.9577"/><line style="stroke:#181818;stroke-width:1.0;" x1="576.4888" x2="570.34" y1="652.4516" y2="657.5694"/><ellipse cx="581.1005" cy="648.6132" fill="none" rx="4" ry="4" style="stroke:#181818;stroke-width:1.0;"/><text fill="#000000" font-family="sans-serif" font-size="13" lengthAdjust="spacing" textLength="38" x="619" y="624.1045">asigna</text></g><rect fill="none" height="98.0469" id="_legend" rx="7.5" ry="7.5" style="stroke:#000000;stroke-width:1.0;" width="261" x="709" y="819.6563"/><text fill="#000000" font-family="sans-serif" font-size="14" lengthAdjust="spacing" textLength="126" x="714" y="839.1895">&#171;PK&#187; clave primaria</text><text fill="#000000" font-family="sans-serif" font-size="14" lengthAdjust="spacing" textLength="124" x="714" y="856.7988">&#171;FK&#187; clave for&#225;nea</text><text fill="#000000" font-family="sans-serif" font-size="14" lengthAdjust="spacing" textLength="139" x="714" y="874.4082">&#171;UNIQUE&#187; valor &#250;nico</text><text fill="#000000" font-family="sans-serif" font-size="14" lengthAdjust="spacing" textLength="210" x="714" y="892.0176">&#171;NOT NULL&#187; columna obligatoria</text><text fill="#000000" font-family="sans-serif" font-size="14" lengthAdjust="spacing" textLength="251" x="714" y="909.627">&#171;NULL&#187; columna opcional (admite nulo)</text><!--SRC=[tLRDRjj64BxpAGRA8JPgnN400uKG664iEb5gKmaj-IgCk2DbON97s5qPRPC-J1-XwArNlrXdIIeX8obEq9uY0O8zy-styxipZ-6A5HKCYV5QeJhEgC1St_zjG17SaEULHZXuypQ6d-3riyCdqMEu9bYI8Oi2SO8gq07Lnyc1G0SY0hCkSAwB80rKEIg4d8jrQL0u784sIkT1Pk3vytGyWNHwUNbs1WSyB_GIFLkDXy11sIXGbTfJOER38o7nN0PMiJ_8vBg2mbKlpgjhu1XUl65jwl-UH97NNW0RVuypwEzmC8hShJOhj5Z27FFRfUMrKSB15XvTL9yMGj42ruM_OEDJB0aS6jTtPFMY1GgnyR_1XmZWvHRZIVW63Lj5jf6U_1o-qHzHr9pj3QT9Ekw1H5gjoN15fXKCO9HEabT99b5w-ykHYEe3PsUYx_Vb9oSbYH3WJPoTluwpWsTF3rlnFe9fEdetJQe3XikvfHRsv6a7N85ojfQu3JhTpoZ9zHOTcOu5fwVRh5I8cNRRpWs0d4V5U_qGJ2jQL_7r-NWIL_4gqUNiyTiZzarH8BUYNBTHfziWYx_Z3fvF7A4r1Z0SJrzU9cs5erzvVoHqYT9-dPkxW1KvdjqkTrBdLO7jjsb1-NkSQREqGX8OuaddF9a5sRAnV9y13-Ug2NLLoxClid8XMTcTraaMJ-AhKP9EwbQGql9OQb5_HqDK7hOyspAgAPW7p1BZBIyVHjsHb-V0eDNVuUWm6x-ggxUwvB_KxbUQSsMbX7cMSxcosAcMjWCDwawksWzQc_hrdodjLcoqlCIkO-vkj90g-NClj1MIcsIIPACqpaPrxbjn_U4Um_fnmNfsxkzLiox9yWmz6ScG-Mh4RJ5RiEV_esd353RQYIkAxSwQtafUFBmQfQDhwT_XEAlIro7vmH8eZdVT-_Ynt-SFdP8To0hbl6GDetgWDvZDj1f0ZwfPV_yNovRHYpQA1jT- -WOGMdHEKVrOx4JqPE6IJdQv5Q0uKd8lQjkpyn0wlHG3eu9au2YmUldUInX2ScGTomky2wGoZsHJg-GNd-KBjlT_6ghbcnZ27ORnS_-FqJbNcjRUroo7q5h_QiWNwbKeTYowww2KcghD_1S0]--></g></svg>